<svg id="Layer_1" data-name="Layer 1" xmlns="http://www.w3.org/2000/svg" viewBox="0 0 1207.75 772.56"><defs><style>.cls-1{fill:#fff;stroke:#000;stroke-miterlimit:10;}</style></defs><title>complex</title><polygon class="cls-1" points="655.25 515.48 474.32 441.07 310.46 547.94 325.31 352.87 173.04 230.05 363.15 183.9 432.9 1.13 535.54 167.67 730.93 177.53 604.25 326.61 655.25 515.48"/><circle cx="100" cy="101" r="102" /><ellipse cx="60" cy="60" rx="50" ry="25"/><line x1="20" y1="100" x2="100" y2="20"/><rect class="cls-1" x="0.5" y="0.5" width="323.68" height="221.05"/><polygon class="cls-1" points="1137.24 135.33 997.49 135.33 927.62 222.94 997.49 310.56 1137.24 310.56 1207.11 222.94 1137.24 135.33"/><polygon points="60,20 100,40 100,80 60,100 20,80 20,40"/><rect class="cls-1" x="872.36" y="557.58" width="310.53" height="214.47" rx="12" ry="12"/><path d="M137.49,157.43,132,174.07H124.9l18-52.91h8.24l18.06,52.91h-7.3l-5.65-16.64Zm17.35-5.34-5.18-15.23c-1.18-3.45-2-6.59-2.75-9.66h-.16c-.79,3.14-1.65,6.36-2.67,9.58l-5.18,15.31Z" transform="translate(-124.9 -99.16)"/><path d="M177,121.86a66.2,66.2,0,0,1,12.48-1.1c6.83,0,11.23,1.18,14.52,3.85a11.09,11.09,0,0,1,4.4,9.34c0,5.1-3.38,9.58-8.95,11.62v.16c5,1.26,10.91,5.42,10.91,13.27a14.26,14.26,0,0,1-4.47,10.6c-3.69,3.38-9.66,4.95-18.29,4.95a79.76,79.76,0,0,1-10.6-.63Zm6.83,21.67H190c7.22,0,11.46-3.77,11.46-8.87,0-6.2-4.71-8.64-11.62-8.64a29.27,29.27,0,0,0-6,.47Zm0,25.36a36.45,36.45,0,0,0,5.73.31c7.07,0,13.58-2.59,13.58-10.28,0-7.22-6.2-10.21-13.66-10.21h-5.65Z" transform="translate(-124.9 -99.16)"/><path d="M256.48,172.34c-2.51,1.26-7.54,2.51-14,2.51-14.92,0-26.14-9.42-26.14-26.77,0-16.56,11.23-27.79,27.63-27.79,6.59,0,10.76,1.41,12.56,2.35l-1.65,5.57a24.88,24.88,0,0,0-10.68-2.2c-12.4,0-20.65,7.93-20.65,21.82,0,13,7.46,21.28,20.33,21.28a27.34,27.34,0,0,0,11.15-2.2Z" transform="translate(-124.9 -99.16)"/></svg>