<svg id="Layer_1" data-name="Layer 1" xmlns="http://www.w3.org/2000/svg" width="66.87mm" height="76.39mm" viewBox="0 0 189.56 216.53">
  <defs>
    <style>
      .cls-1 {
        fill: #e42313;
      }
    </style>
  </defs>
  <title>MiddlesexLogoHD</title>
  <g>
    <path class="cls-1" d="M250.84,216c10.67,0,19-1.74,19-4,0-2.72-9.88-4-19-4-9.48,0-19,1.22-19,4C231.8,214.21,240.17,216,250.84,216Z" transform="translate(-156.36 -157.9)"/>
    <path class="cls-1" d="M345.26,165.17l-95-7.27L157,164.84s-.66,20.39-.66,45.66c0,129.45,94.48,163.93,94.48,163.93s95.08-34.15,95.08-163.6C345.92,185.56,345.26,165.17,345.26,165.17ZM222.49,182.33a4.18,4.18,0,0,1,5.95,3.61l2.27.83-1.51,4.16c1.79,3,3.8,6,5,7.74a47.78,47.78,0,0,1,12.38-2.13c.28-1.46,1.24-6.69,1.67-11.36L245.1,182l1.7-1.7a4.06,4.06,0,0,1-.33-1.6,4.2,4.2,0,0,1,8.39,0,3.9,3.9,0,0,1-.34,1.6l1.72,1.7-3.14,3.13c.47,4.88,1.38,9.88,1.66,11.34a56,56,0,0,1,12.73,2.16c1.19-1.72,3.22-4.72,5-7.74L271,186.77l2.27-.83a3.94,3.94,0,0,1,.38-1.58,4.19,4.19,0,1,1,7.59,3.54,3.89,3.89,0,0,1-1,1.31l.82,2.27L276.85,193c-1.47,2.86-2.89,11.69-3.67,16.48-.17,1.06-.3,1.92-.41,2.47-.83,4.56-9.85,7.74-21.92,7.74s-21.17-3.25-22-7.74c0-.16-2.43-15.28-4.06-19l-4.19-1.52.82-2.27a3.92,3.92,0,0,1-1-1.31A4.21,4.21,0,0,1,222.49,182.33Zm68.63,156.35H272.46l-3.54-2.86c1.29-3.63.5-7.3-2.06-8.65s-6.11.09-8.39,3.28a35.22,35.22,0,0,0-11.57-1.7,62.62,62.62,0,0,0-16.35,2.36,7.81,7.81,0,0,1,.27,4.66,6.33,6.33,0,0,1-2.68,3.86l-.18.07a2.33,2.33,0,0,1-1.05.28,2.21,2.21,0,1,1,0-4.41,4,4,0,0,0,.18-2.83,2.1,2.1,0,0,1-.42.22,2.66,2.66,0,0,1-2.18-.16,2.4,2.4,0,0,1-3.6,1.28,2.47,2.47,0,0,1-1.41,1.57,2.51,2.51,0,0,1-2.2-.27,2.28,2.28,0,0,1-3.6,1.31,2.42,2.42,0,0,1-1.38,1.66c-1.4.54-3.13-.54-3.83-2.37a4,4,0,0,1,0-3.05,2.32,2.32,0,0,1,1.27-1.27,2.37,2.37,0,0,1,2,.23,2.49,2.49,0,0,1,1.47-1.84,2.4,2.4,0,0,1,2,.19,2.53,2.53,0,0,1,1.49-1.81,2.44,2.44,0,0,1,2,.15,2.59,2.59,0,0,1,1.51-1.77,2.5,2.5,0,0,1,2,.11,2.7,2.7,0,0,1,1.52-1.73h0c-1.37-4.65.84-7.11,1.57-7.76l.24-.21.29-.2.14-.06.3-.12a2.11,2.11,0,0,1,.4-.07.75.75,0,0,1,.3-.06,2.27,2.27,0,0,1,2.3,2.21,2.24,2.24,0,0,1-2,2.19c-.32.65-.54,1.49.2,3.43l.67-.23c5.77-2,13.68-4.82,24.35-4.82h.41c31.41.73,38.28,14.84,38.28,18.66ZM304.65,308H280l-4.68-4.1c1.76-4.45.89-9-2.25-10.7s-7.6.29-10.26,4.41c-2-.78-8-2.84-17.61-2.84A81.28,81.28,0,0,0,223.38,298a9.1,9.1,0,0,1,.26,5.24,7.28,7.28,0,0,1-3.14,4.52l-.17.07a2.54,2.54,0,1,1-1.22-4.71h0a4.48,4.48,0,0,0,.35-3.09,2.89,2.89,0,0,1-.72.42,3.33,3.33,0,0,1-2.75-.26,3.11,3.11,0,0,1-1.79,1.95,3.19,3.19,0,0,1-2.76-.31,3,3,0,0,1-1.77,2,3.15,3.15,0,0,1-2.82-.38,2.94,2.94,0,0,1-1.7,2.08,3.12,3.12,0,0,1-2.84-.45,2.93,2.93,0,0,1-1.7,2.15c-1.68.65-3.77-.67-4.64-2.9a5,5,0,0,1-.05-3.75,2.81,2.81,0,0,1,1.53-1.52,2.92,2.92,0,0,1,2.6.34,2.83,2.83,0,0,1,4.34-2.12,3.16,3.16,0,0,1,1.87-2.3,3.08,3.08,0,0,1,2.5.21,3.29,3.29,0,0,1,1.89-2.25,3.16,3.16,0,0,1,2.49.16,3.36,3.36,0,0,1,1.9-2.2,1.68,1.68,0,0,1,.32-.09c-1.66-5.38.69-8.26,1.82-9.26a1.48,1.48,0,0,1,.25-.22l.3-.23.18-.07a2.34,2.34,0,0,1,.37-.15,2.31,2.31,0,0,1,.43-.08,1.43,1.43,0,0,1,.37-.06,2.51,2.51,0,0,1,.28,5,5.91,5.91,0,0,0,.19,4.1c6.39-2.26,21.38-7.06,33.31-7.06h.9c42,1.16,50.86,20.87,50.86,24.7Zm13-36.15H287L281.82,267c2.36-4.93,1.56-10.28-1.95-12.14s-8.14.38-10.92,4.87c-2.11-.87-11.86-4.56-26.66-4.56a98.12,98.12,0,0,0-25.68,3.53,12.64,12.64,0,0,1,.56,7.23,8.73,8.73,0,0,1-3.78,5.45l-.21.08a3,3,0,1,1-1.44-5.53h.1a6.11,6.11,0,0,0,.29-4.75,2.86,2.86,0,0,1-.52.27,3.87,3.87,0,0,1-3.3-.36,3.71,3.71,0,0,1-2.13,2.39,3.75,3.75,0,0,1-3.32-.43,3.58,3.58,0,0,1-2.1,2.46,3.68,3.68,0,0,1-3.34-.49,3.54,3.54,0,0,1-2.07,2.52A3.64,3.64,0,0,1,192,267a3.48,3.48,0,0,1-2,2.62c-2,.77-4.4-.79-5.42-3.41s-.24-5.4,1.71-6.16a3.39,3.39,0,0,1,3.12.47,3.66,3.66,0,0,1,2.14-2.91,3.52,3.52,0,0,1,3.07.38,3.72,3.72,0,0,1,2.2-2.82,3.62,3.62,0,0,1,3,.32,3.82,3.82,0,0,1,2.23-2.75,3.69,3.69,0,0,1,3,.24,3.85,3.85,0,0,1,2.18-2.65c-1.79-6.44,1.28-9.85,2.29-10.76a3.41,3.41,0,0,1,.33-.28,3.59,3.59,0,0,1,.34-.25l.18-.08a2.41,2.41,0,0,1,.47-.18,3.16,3.16,0,0,1,.5-.1,1.71,1.71,0,0,1,.43-.08,3,3,0,0,1,.27,5.91,7,7,0,0,0,.1,4.92c6.86-2.82,23.6-8.82,42.07-8.82,52.42,1.45,63.44,26,63.44,30.73Z" transform="translate(-156.36 -157.9)"/>
  </g>
</svg>
