<svg id="Layer_1" data-name="Layer 1" xmlns="http://www.w3.org/2000/svg" width="66.87mm" height="76.39mm" viewBox="0 0 189.56 216.53">
  <defs>
    <style>
      .cls-1 {
        fill: #e42313;
      }
    </style>
  </defs>
  <title>MiddlesexLogoHD</title>
  <g>
    <path class="cls-1" d="M250.84,216c10.67,0,19-1.74,19-4,0-2.72-9.88-4-19-4-9.48,0-19,1.22-19,4C231.8,214.21,240.17,216,250.84,216Z" transform="translate(-156.36 -157.9)"/>
    <path class="cls-1" d="M345.26,165.17l-95-7.27L157,164.84s-.66,20.39-.66,45.66c0,129.45,94.48,163.93,94.48,163.93s95.08-34.15,95.08-163.6C345.92,185.56,345.26,165.17,345.26,165.17ZM222.49,182.33a4.18,4.18,0,0,1,5.95,3.61l2.27.83-1.51,4.16c1.79,3,3.8,6,5,7.74a47.78,47.78,0,0,1,12.38-2.13c.28-1.46,1.24-6.69,1.67-11.36L245.1,182l1.7-1.7a4.06,4.06,0,0,1-.33-1.6,4.2,4.2,0,0,1,8.39,0,3.9,3.9,0,0,1-.34,1.6l1.72,1.7-3.14,3.13c.47,4.88,1.38,9.88,1.66,11.34a56,56,0,0,1,12.73,2.16c1.19-1.72,3.22-4.72,5-7.74L271,186.77l2.27-.83a3.94,3.94,0,0,1,.38-1.58,4.19,4.19,0,1,1,7.59,3.54,3.89,3.89,0,0,1-1,1.31l.82,2.27L276.85,193c-1.47,2.86-2.89,11.69-3.67,16.48-.17,1.06-.3,1.92-.41,2.47-.83,4.56-9.85,7.74-21.92,7.74s-21.17-3.25-22-7.74c0-.16-2.43-15.28-4.06-19l-4.19-1.52.82-2.27a3.92,3.92,0,0,1-1-1.31A4.21,4.21,0,0,1,222.49,182.33Z" transform="translate(-156.36 -157.9)"/>
  </g>
</svg>
